<svg width="442" height="484" viewBox="0 0 442 484" fill="none" xmlns="http://www.w3.org/2000/svg">
<path d="M42.72 175.336C42.72 221.905 76.0599 260.688 120.173 269.117C128.944 285.215 139.722 299.596 152.08 311.749C147.52 312.232 142.889 312.48 138.2 312.48C66.2925 312.48 8 254.187 8 182.28V0H42.72V175.336Z" fill="#590209"/>
<path fill-rule="evenodd" clip-rule="evenodd" d="M424.64 156.24C424.64 242.529 354.689 312.48 268.4 312.48C182.111 312.48 112.16 242.529 112.16 156.24C112.16 69.951 182.111 0 268.4 0C354.689 0 424.64 69.951 424.64 156.24ZM198.96 121.52H320.48V156.24C320.48 165.828 312.708 173.6 303.12 173.6H216.32C206.732 173.6 198.96 165.828 198.96 156.24V121.52ZM242.36 208.32C247.154 208.32 251.04 204.434 251.04 199.64C251.04 194.846 247.154 190.96 242.36 190.96C237.566 190.96 233.68 194.846 233.68 199.64C233.68 204.434 237.566 208.32 242.36 208.32ZM285.76 199.64C285.76 204.434 281.874 208.32 277.08 208.32C272.286 208.32 268.4 204.434 268.4 199.64C268.4 194.846 272.286 190.96 277.08 190.96C281.874 190.96 285.76 194.846 285.76 199.64Z" fill="#590209"/>
<path d="M74.5756 376.606C74.1705 376.838 73.7076 377.04 73.1868 377.214C72.7239 377.388 72.2609 377.59 71.798 377.822C70.1777 378.516 68.6732 379.268 67.2844 380.078C65.9535 380.831 65.288 381.901 65.288 383.29V388.238C65.288 390.263 65.288 392.346 65.288 394.487C65.288 396.57 65.3169 398.654 65.3748 400.737C65.3748 402.762 65.3748 404.759 65.3748 406.726C65.4327 408.693 65.4616 410.69 65.4616 412.715C65.4616 417.634 65.3748 422.437 65.2012 427.124C65.0276 430.191 64.6225 433.055 63.986 435.717C63.3495 438.321 62.3368 440.636 60.948 442.661C59.5592 444.687 57.7364 446.394 55.4796 447.782C53.2228 449.171 50.3584 450.155 46.8864 450.734C45.6712 450.965 44.3692 451.11 42.9804 451.168C41.5916 451.283 40.2317 451.341 38.9008 451.341C37.0491 451.341 35.1973 451.254 33.3456 451.081C31.5517 450.907 29.8447 450.647 28.2244 450.3C23.9423 449.374 20.4992 447.869 17.8952 445.786C15.2912 443.703 13.2659 441.243 11.8192 438.408C10.4304 435.573 9.44667 432.477 8.868 429.12C8.3472 425.706 8.02893 422.205 7.9132 418.618C7.79747 416.129 7.7396 413.496 7.7396 410.719C7.68173 407.941 7.6528 405.308 7.6528 402.82C7.6528 400.621 7.68173 398.48 7.7396 396.397C7.7396 394.256 7.7396 392.086 7.7396 389.887V379.558C6.58227 379.037 5.42493 378.516 4.2676 377.995C3.11027 377.474 1.95293 376.983 0.795599 376.52C0.4484 376.404 0.332666 376.172 0.448399 375.825C0.506266 375.42 0.708799 375.218 1.056 375.218H26.7488C27.096 375.218 27.2985 375.42 27.3564 375.825C27.4721 376.172 27.3564 376.404 27.0092 376.52L19.9784 379.818C19.9784 381.785 19.9495 383.753 19.8916 385.72C19.8916 387.688 19.8916 389.684 19.8916 391.71C19.8916 393.388 19.8627 395.095 19.8048 396.831C19.8048 398.567 19.8048 400.274 19.8048 401.952C19.8048 407.912 19.8916 413.757 20.0652 419.486C20.1231 422.09 20.3256 424.723 20.6728 427.384C21.0779 430.046 21.6565 432.592 22.4088 435.023C23.2189 437.453 24.2316 439.652 25.4468 441.62C26.7199 443.587 28.3112 445.149 30.2208 446.307C31.6096 447.117 33.1431 447.725 34.8212 448.13C36.4993 448.477 38.2064 448.65 39.9424 448.65C41.0419 448.65 42.1703 448.593 43.3276 448.477C44.4849 448.303 45.6133 448.13 46.7128 447.956C49.5483 447.377 51.9208 446.451 53.8304 445.178C55.74 443.905 57.2735 442.372 58.4308 440.578C59.646 438.784 60.514 436.759 61.0348 434.502C61.6135 432.187 61.9607 429.728 62.0764 427.124C62.1343 425.272 62.1632 423.218 62.1632 420.961C62.2211 418.704 62.25 416.621 62.25 414.712C62.25 412.686 62.2211 410.632 62.1632 408.549C62.1632 406.408 62.1632 404.267 62.1632 402.126C62.1053 400.158 62.0764 397.93 62.0764 395.442C62.0764 392.954 62.0764 390.726 62.0764 388.758V383.377C62.0764 382.046 61.4977 381.004 60.3404 380.252C59.1831 379.442 57.91 378.632 56.5212 377.822L54.438 376.606C54.1487 376.491 54.0329 376.259 54.0908 375.912C54.2065 375.565 54.438 375.391 54.7852 375.391H74.2284L74.5756 376.606ZM105.506 450.647C105.159 450.647 104.928 450.473 104.812 450.126C104.754 449.721 104.899 449.461 105.246 449.345L112.103 446.307C112.161 443.471 112.19 440.665 112.19 437.887C112.248 435.052 112.277 432.158 112.277 429.207C112.277 428.802 112.277 428.397 112.277 427.992C112.335 427.529 112.363 427.066 112.363 426.603C112.363 425.967 112.363 425.301 112.363 424.607C112.421 423.912 112.45 423.189 112.45 422.437C112.45 420.701 112.392 418.936 112.277 417.142C112.161 415.348 111.901 413.641 111.495 412.021C111.09 410.401 110.512 408.983 109.759 407.768C109.007 406.495 107.995 405.54 106.721 404.903H106.808C105.709 404.44 104.523 404.209 103.249 404.209C101.34 404.209 99.546 404.73 97.8678 405.771C96.9998 406.292 96.1897 406.957 95.4374 407.768C94.743 408.52 94.1065 409.359 93.5278 410.285C92.8913 411.326 92.3705 412.628 91.9654 414.191C91.6182 415.753 91.3 417.345 91.0106 418.965C91.0106 421.395 91.0106 423.334 91.0106 424.78C91.0106 426.169 91.0106 427.5 91.0106 428.773C91.0106 429.988 90.9817 431.348 90.9238 432.853C90.9238 434.299 90.9238 436.267 90.9238 438.755V446.046C92.139 446.625 93.3253 447.204 94.4826 447.782C95.6978 448.361 96.8841 448.882 98.0414 449.345C98.3886 449.461 98.5044 449.721 98.3886 450.126C98.3308 450.473 98.1282 450.647 97.781 450.647H73.5638C73.1588 450.647 72.9273 450.473 72.8694 450.126C72.8116 449.721 72.9562 449.461 73.3034 449.345L80.2474 446.307V429.034C80.2474 428.166 80.2474 427.269 80.2474 426.343C80.2474 425.359 80.2474 424.231 80.2474 422.958C80.2474 421.627 80.2474 420.035 80.2474 418.184C80.3053 416.332 80.3342 414.046 80.3342 411.326C80.2185 410.285 79.8424 409.359 79.2058 408.549C78.6272 407.739 77.9328 407.015 77.1226 406.379V406.466C76.4861 406.061 75.8785 405.54 75.2998 404.903C75.0684 404.672 75.0105 404.44 75.1262 404.209C75.242 403.919 75.4445 403.746 75.7338 403.688L94.4826 401.344C94.772 401.287 94.9745 401.402 95.0902 401.692C95.2638 401.923 95.2638 402.183 95.0902 402.473L92.8334 405.511C93.875 404.585 95.0902 403.833 96.479 403.254C97.9836 402.502 99.4592 402.01 100.906 401.778C102.41 401.547 103.857 401.431 105.246 401.431C105.709 401.431 106.172 401.431 106.635 401.431C107.155 401.431 107.647 401.46 108.11 401.518H108.023C111.669 401.692 114.505 402.531 116.53 404.035C118.555 405.482 120.06 407.42 121.043 409.851C122.027 412.223 122.606 415.001 122.779 418.184C123.011 421.366 123.127 424.78 123.127 428.426C123.127 429.931 123.098 431.435 123.04 432.94C123.04 434.444 123.011 435.949 122.953 437.453C122.895 438.958 122.866 440.404 122.866 441.793C122.866 443.124 122.866 444.542 122.866 446.046C124.081 446.625 125.268 447.204 126.425 447.782C127.582 448.361 128.74 448.882 129.897 449.345C130.244 449.461 130.36 449.721 130.244 450.126C130.186 450.473 129.984 450.647 129.637 450.647H105.506ZM141.018 446.307V429.034C141.018 428.166 141.018 427.269 141.018 426.343C141.018 425.359 141.018 424.231 141.018 422.958C141.018 421.627 141.018 420.035 141.018 418.184C141.076 416.332 141.105 414.046 141.105 411.326C140.989 409.88 140.44 408.636 139.456 407.594C138.53 406.552 137.488 405.684 136.331 404.99C136.042 404.816 135.926 404.585 135.984 404.296C136.042 403.948 136.244 403.746 136.591 403.688L138.501 403.428C140.584 403.08 142.696 402.762 144.838 402.473C146.979 402.126 149.062 401.807 151.087 401.518C151.608 401.402 151.868 401.634 151.868 402.212V415.146C151.868 420.411 151.868 425.562 151.868 430.596C151.868 435.63 151.839 440.781 151.782 446.046C152.939 446.625 154.096 447.204 155.254 447.782C156.469 448.361 157.684 448.882 158.899 449.345C159.188 449.461 159.304 449.721 159.246 450.126C159.188 450.473 158.986 450.647 158.639 450.647H134.335C133.987 450.647 133.785 450.473 133.727 450.126C133.669 449.721 133.785 449.461 134.074 449.345L141.018 446.307ZM145.619 395.529C144.114 395.529 142.783 394.979 141.626 393.88C140.469 392.78 139.89 391.449 139.89 389.887C139.89 388.324 140.44 386.993 141.539 385.894C142.639 384.737 143.97 384.158 145.532 384.158C147.152 384.1 148.483 384.621 149.525 385.72C150.624 386.82 151.203 388.151 151.261 389.713C151.261 391.276 150.711 392.635 149.612 393.793C148.512 394.892 147.181 395.471 145.619 395.529ZM201.13 437.28C201.593 437.395 201.767 437.685 201.651 438.148C201.014 440.347 200.088 442.256 198.873 443.876C197.658 445.439 196.24 446.741 194.62 447.782C193 448.766 191.235 449.518 189.325 450.039C187.416 450.502 185.477 450.734 183.51 450.734C179.517 450.734 176.016 450.068 173.007 448.737C169.998 447.406 167.481 445.641 165.455 443.442C163.488 441.186 161.983 438.639 160.942 435.804C159.958 432.969 159.466 430.046 159.466 427.037C159.466 424.491 159.813 421.974 160.508 419.486C161.26 416.939 162.359 414.596 163.806 412.455C165.311 410.256 167.133 408.346 169.274 406.726C171.473 405.048 174.019 403.775 176.913 402.907C179.517 402.097 182.092 401.692 184.638 401.692C187.068 401.692 189.557 402.097 192.103 402.907C193.376 403.312 194.678 403.891 196.009 404.643C197.34 405.395 198.41 406.292 199.22 407.334C200.204 408.665 200.696 409.851 200.696 410.892C200.696 412.05 200.291 413.005 199.481 413.757C198.671 414.451 197.774 414.798 196.79 414.798C195.922 414.798 195.025 414.509 194.099 413.93C193.173 413.294 192.363 412.223 191.669 410.719L191.148 409.504C190.917 409.041 190.714 408.607 190.54 408.202C190.425 407.739 190.077 407.16 189.499 406.466C188.92 405.655 188.226 405.106 187.416 404.816C186.663 404.469 185.853 404.296 184.985 404.296C183.828 404.296 182.671 404.527 181.513 404.99C180.414 405.453 179.401 405.974 178.475 406.552C175.987 408.404 174.106 411.037 172.833 414.451C171.56 417.865 170.924 421.453 170.924 425.214C170.924 427.703 171.184 430.162 171.705 432.592C172.283 435.023 173.123 437.251 174.222 439.276C175.321 441.243 176.652 442.922 178.215 444.31C179.777 445.699 181.6 446.567 183.683 446.914C185.246 447.146 186.837 447.088 188.457 446.741C190.135 446.336 191.669 445.728 193.058 444.918C194.504 444.108 195.748 443.066 196.79 441.793C197.889 440.52 198.671 439.073 199.134 437.453C199.249 436.99 199.539 436.817 200.002 436.932L201.13 437.28ZM211.882 446.307V414.538C211.882 409.099 211.882 403.746 211.882 398.48C211.882 393.156 211.911 387.775 211.969 382.335C211.853 381.294 211.506 380.397 210.928 379.644C210.349 378.834 209.654 378.111 208.844 377.474L207.108 375.912C206.819 375.681 206.732 375.449 206.848 375.218C206.964 374.928 207.166 374.755 207.456 374.697L226.204 372.353C226.552 372.295 226.783 372.411 226.899 372.7C227.014 372.932 226.986 373.192 226.812 373.482L225.77 374.87H225.857C225.047 376.028 224.324 377.127 223.687 378.169C223.108 379.153 222.819 380.31 222.819 381.641C222.761 387.08 222.732 392.491 222.732 397.872C222.732 403.254 222.732 408.665 222.732 414.104C222.732 419.543 222.703 424.867 222.646 430.075C222.646 435.283 222.646 440.607 222.646 446.046C223.803 446.625 224.96 447.204 226.118 447.782C227.333 448.361 228.548 448.882 229.763 449.345C230.052 449.461 230.168 449.721 230.11 450.126C230.052 450.473 229.85 450.647 229.503 450.647H205.199C204.852 450.647 204.649 450.473 204.591 450.126C204.533 449.721 204.649 449.461 204.938 449.345L211.882 446.307ZM241.296 446.307V429.034C241.296 428.166 241.296 427.269 241.296 426.343C241.296 425.359 241.296 424.231 241.296 422.958C241.296 421.627 241.296 420.035 241.296 418.184C241.354 416.332 241.383 414.046 241.383 411.326C241.267 409.88 240.717 408.636 239.734 407.594C238.808 406.552 237.766 405.684 236.609 404.99C236.32 404.816 236.204 404.585 236.262 404.296C236.32 403.948 236.522 403.746 236.869 403.688L238.779 403.428C240.862 403.08 242.974 402.762 245.115 402.473C247.256 402.126 249.34 401.807 251.365 401.518C251.886 401.402 252.146 401.634 252.146 402.212V415.146C252.146 420.411 252.146 425.562 252.146 430.596C252.146 435.63 252.117 440.781 252.059 446.046C253.217 446.625 254.374 447.204 255.531 447.782C256.746 448.361 257.962 448.882 259.177 449.345C259.466 449.461 259.582 449.721 259.524 450.126C259.466 450.473 259.264 450.647 258.916 450.647H234.612C234.265 450.647 234.063 450.473 234.005 450.126C233.947 449.721 234.063 449.461 234.352 449.345L241.296 446.307ZM245.896 395.529C244.392 395.529 243.061 394.979 241.904 393.88C240.746 392.78 240.168 391.449 240.168 389.887C240.168 388.324 240.717 386.993 241.817 385.894C242.916 384.737 244.247 384.158 245.81 384.158C247.43 384.1 248.761 384.621 249.802 385.72C250.902 386.82 251.481 388.151 251.538 389.713C251.538 391.276 250.989 392.635 249.889 393.793C248.79 394.892 247.459 395.471 245.896 395.529ZM296.157 464.708V446.133C294.479 447.696 292.598 448.824 290.515 449.518C288.432 450.213 286.291 450.56 284.092 450.56C281.835 450.56 279.52 450.242 277.148 449.605C274.602 448.911 272.374 447.811 270.464 446.307C268.555 444.744 266.934 442.922 265.603 440.838C264.272 438.755 263.26 436.469 262.565 433.981C261.929 431.493 261.611 428.976 261.611 426.43C261.611 423.652 261.987 420.932 262.739 418.27C263.549 415.609 264.764 413.149 266.385 410.892C268.005 408.636 270.059 406.726 272.547 405.164C275.036 403.543 277.958 402.444 281.314 401.865C282.182 401.749 283.05 401.663 283.918 401.605C284.844 401.489 285.799 401.431 286.783 401.431C288.287 401.431 289.994 401.721 291.904 402.299C293.813 402.878 295.52 403.746 297.025 404.903L306.226 404.035C306.747 404.035 307.007 404.267 307.007 404.73C307.007 410.169 306.978 415.319 306.92 420.18C306.92 425.041 306.92 429.902 306.92 434.762C306.92 439.623 306.92 444.455 306.92 449.258C306.92 454.003 306.891 459.095 306.833 464.535C307.991 465.113 309.177 465.634 310.392 466.097C311.607 466.618 312.794 467.197 313.951 467.833C314.298 468.007 314.414 468.238 314.298 468.528C314.24 468.875 314.038 469.048 313.691 469.048H289.473C289.126 469.048 288.895 468.875 288.779 468.528C288.721 468.18 288.866 467.949 289.213 467.833L296.157 464.708ZM280.273 445.526C282.24 446.914 284.092 447.609 285.828 447.609C287.043 447.609 288.2 447.262 289.3 446.567C290.457 445.815 291.47 444.889 292.338 443.79C293.264 442.632 294.045 441.33 294.681 439.884C295.318 438.437 295.81 437.019 296.157 435.63V412.542C295.578 410.227 294.508 408.259 292.945 406.639C291.441 405.019 289.387 404.151 286.783 404.035C285.972 403.977 285.133 404.006 284.265 404.122C283.455 404.238 282.674 404.44 281.922 404.73C280.244 405.308 278.797 406.234 277.582 407.507C276.424 408.78 275.441 410.285 274.631 412.021C273.82 413.757 273.213 415.666 272.808 417.75C272.461 419.833 272.287 421.974 272.287 424.173C272.287 426.314 272.461 428.455 272.808 430.596C273.155 432.737 273.676 434.762 274.37 436.672C275.065 438.524 275.904 440.231 276.887 441.793C277.871 443.298 279 444.542 280.273 445.526ZM354.334 444.744C352.945 446.365 351.122 447.725 348.866 448.824C347.361 449.461 345.857 449.923 344.352 450.213C342.905 450.444 341.488 450.56 340.099 450.56C339.578 450.56 339.086 450.56 338.623 450.56C338.16 450.56 337.697 450.531 337.234 450.473H337.321C333.676 450.3 330.811 449.489 328.728 448.043C326.703 446.538 325.198 444.6 324.214 442.227C323.231 439.797 322.652 436.99 322.478 433.808C322.247 430.625 322.131 427.211 322.131 423.565C322.131 422.408 322.131 421.366 322.131 420.44C322.131 419.457 322.16 418.473 322.218 417.489C322.276 416.1 322.334 414.683 322.392 413.236C322.392 411.731 322.392 410.111 322.392 408.375C321.234 407.797 320.077 407.247 318.92 406.726C317.762 406.147 316.605 405.598 315.448 405.077C315.1 404.961 314.985 404.73 315.1 404.382C315.158 403.977 315.332 403.775 315.621 403.775H332.547C333.01 403.775 333.242 404.006 333.242 404.469C333.242 407.536 333.213 410.603 333.155 413.67C333.155 416.679 333.126 419.746 333.068 422.871C333.068 423.16 333.039 423.565 332.981 424.086C332.981 424.607 332.981 425.041 332.981 425.388C332.981 426.025 332.952 426.719 332.894 427.471C332.894 428.166 332.894 428.86 332.894 429.554C332.894 431.29 332.952 433.084 333.068 434.936C333.184 436.73 333.444 438.437 333.849 440.057C334.254 441.677 334.833 443.124 335.585 444.397C336.338 445.612 337.35 446.509 338.623 447.088C339.665 447.609 340.793 447.869 342.008 447.869C342.992 447.869 343.947 447.725 344.873 447.435C345.857 447.088 346.754 446.683 347.564 446.22C348.432 445.757 349.213 445.121 349.907 444.31C350.602 443.5 351.238 442.632 351.817 441.706C352.453 440.665 352.974 439.334 353.379 437.714C353.784 436.035 354.103 434.444 354.334 432.94V408.375L347.39 404.99C347.043 404.816 346.898 404.556 346.956 404.209C347.072 403.862 347.303 403.688 347.65 403.688H371.781C372.128 403.688 372.331 403.862 372.388 404.209C372.504 404.556 372.388 404.816 372.041 404.99L365.184 408.115C365.184 411.529 365.155 414.798 365.097 417.923C365.097 420.99 365.097 424.057 365.097 427.124C365.097 430.133 365.097 433.2 365.097 436.325C365.097 439.392 365.097 442.632 365.097 446.046C366.255 446.625 367.412 447.204 368.569 447.782C369.784 448.361 370.971 448.882 372.128 449.345C372.475 449.461 372.591 449.721 372.475 450.126C372.417 450.473 372.215 450.647 371.868 450.647H354.942C354.537 450.647 354.334 450.415 354.334 449.952V444.744ZM417.708 437.28C418.171 437.395 418.345 437.685 418.229 438.148C417.592 440.347 416.667 442.256 415.451 443.876C414.236 445.439 412.818 446.741 411.198 447.782C409.636 448.766 407.9 449.518 405.99 450.039C404.081 450.502 402.113 450.734 400.088 450.734C395.921 450.734 392.305 450.097 389.238 448.824C386.229 447.493 383.74 445.757 381.773 443.616C379.806 441.417 378.33 438.929 377.346 436.151C376.42 433.316 375.957 430.422 375.957 427.471C375.957 424.867 376.334 422.292 377.086 419.746C377.838 417.2 378.909 414.827 380.297 412.628C381.744 410.429 383.48 408.462 385.505 406.726C387.589 404.99 389.932 403.688 392.536 402.82C394.677 402.126 396.963 401.778 399.393 401.778C400.377 401.778 401.303 401.836 402.171 401.952C403.039 402.01 403.878 402.183 404.688 402.473C406.482 403.051 408.189 403.891 409.809 404.99C411.43 406.089 412.847 407.391 414.063 408.896C415.278 410.343 416.204 411.992 416.84 413.844C417.535 415.695 417.853 417.634 417.795 419.659C417.795 420.064 417.592 420.267 417.187 420.267L388.196 420.788C387.849 422.871 387.675 424.896 387.675 426.864C387.675 429.236 387.907 431.551 388.37 433.808C388.891 436.007 389.672 438.032 390.713 439.884C391.755 441.677 393.057 443.211 394.619 444.484C396.24 445.757 398.149 446.567 400.348 446.914C401.911 447.146 403.502 447.088 405.122 446.741C406.742 446.336 408.247 445.728 409.636 444.918C411.082 444.108 412.327 443.066 413.368 441.793C414.468 440.52 415.249 439.073 415.712 437.453C415.828 436.99 416.117 436.817 416.58 436.932L417.708 437.28ZM394.793 406.205C393.462 407.305 392.276 408.896 391.234 410.979C390.193 413.005 389.354 415.232 388.717 417.663L409.115 417.142C408.999 416.158 408.768 415.117 408.421 414.017C408.073 412.86 407.639 411.76 407.119 410.719C406.598 409.677 405.99 408.693 405.296 407.768C404.601 406.842 403.82 406.089 402.952 405.511C401.853 404.759 400.695 404.382 399.48 404.382C398.67 404.382 397.831 404.527 396.963 404.816C396.153 405.106 395.43 405.569 394.793 406.205Z" fill="#590209"/>
</svg>
