<svg width="24" height="24" viewBox="0 0 24 24" fill="none" xmlns="http://www.w3.org/2000/svg">
<circle cx="12" cy="12" r="12" fill="#590209"/>
<path d="M15.5311 6.55692C15.5311 6.47385 15.4981 6.39418 15.4393 6.33544C15.3806 6.2767 15.3009 6.24369 15.2179 6.24369H13.6517C12.8631 6.20441 12.0909 6.47886 11.504 7.00709C10.9171 7.53531 10.5631 8.27436 10.5194 9.06277V10.7542H8.95325C8.87017 10.7542 8.7905 10.7872 8.73176 10.846C8.67302 10.9047 8.64001 10.9844 8.64001 11.0674V12.6962C8.64001 12.7793 8.67302 12.859 8.73176 12.9177C8.7905 12.9765 8.87017 13.0095 8.95325 13.0095H10.5194V17.2068C10.5194 17.2898 10.5524 17.3695 10.6111 17.4282C10.6699 17.487 10.7496 17.52 10.8326 17.52H12.712C12.7951 17.52 12.8748 17.487 12.9335 17.4282C12.9922 17.3695 13.0252 17.2898 13.0252 17.2068V13.0095H14.6666C14.7362 13.0105 14.8042 12.9882 14.8598 12.9462C14.9154 12.9043 14.9554 12.845 14.9735 12.7777L15.4246 11.1489C15.437 11.1026 15.4387 11.0541 15.4295 11.007C15.4202 10.96 15.4003 10.9157 15.3713 10.8776C15.3422 10.8395 15.3048 10.8085 15.2619 10.7871C15.219 10.7657 15.1718 10.7545 15.1239 10.7542H13.0252V9.06277C13.0408 8.9077 13.1136 8.76402 13.2295 8.65976C13.3453 8.55551 13.4959 8.49817 13.6517 8.49895H15.2179C15.3009 8.49895 15.3806 8.46595 15.4393 8.40721C15.4981 8.34847 15.5311 8.2688 15.5311 8.18572V6.55692Z" fill="white"/>
</svg>
