<svg width="24" height="24" viewBox="0 0 24 24" fill="none" xmlns="http://www.w3.org/2000/svg">
<circle cx="12" cy="12" r="12" fill="#590209"/>
<path d="M11.8785 9.22606C10.2771 9.22606 8.98466 10.5185 8.98466 12.1199C8.98466 13.7213 10.2771 15.0137 11.8785 15.0137C13.4799 15.0137 14.7723 13.7213 14.7723 12.1199C14.7723 10.5185 13.4799 9.22606 11.8785 9.22606ZM11.8785 14.0006C10.8429 14.0006 9.99771 13.1555 9.99771 12.1199C9.99771 11.0843 10.8429 10.2391 11.8785 10.2391C12.9141 10.2391 13.7592 11.0843 13.7592 12.1199C13.7592 13.1555 12.9141 14.0006 11.8785 14.0006ZM14.8908 8.43312C14.5169 8.43312 14.215 8.73506 14.215 9.10896C14.215 9.48285 14.5169 9.78479 14.8908 9.78479C15.2647 9.78479 15.5666 9.48426 15.5666 9.10896C15.5667 9.02017 15.5493 8.93224 15.5154 8.85019C15.4815 8.76815 15.4317 8.6936 15.3689 8.63082C15.3062 8.56804 15.2316 8.51827 15.1496 8.48434C15.0675 8.45042 14.9796 8.43301 14.8908 8.43312ZM17.5194 12.1199C17.5194 11.341 17.5264 10.5693 17.4827 9.79185C17.4389 8.88885 17.2329 8.08745 16.5726 7.42713C15.9109 6.76541 15.1109 6.56082 14.2079 6.51708C13.4291 6.47335 12.6573 6.4804 11.8799 6.4804C11.1011 6.4804 10.3293 6.47335 9.55186 6.51708C8.64886 6.56082 7.84746 6.76682 7.18714 7.42713C6.52542 8.08886 6.32083 8.88885 6.27709 9.79185C6.23336 10.5707 6.24041 11.3425 6.24041 12.1199C6.24041 12.8973 6.23336 13.6705 6.27709 14.4479C6.32083 15.3509 6.52683 16.1523 7.18714 16.8126C7.84887 17.4743 8.64886 17.6789 9.55186 17.7227C10.3307 17.7664 11.1025 17.7594 11.8799 17.7594C12.6587 17.7594 13.4305 17.7664 14.2079 17.7227C15.1109 17.6789 15.9123 17.4729 16.5726 16.8126C17.2344 16.1509 17.4389 15.3509 17.4827 14.4479C17.5278 13.6705 17.5194 12.8987 17.5194 12.1199ZM16.2777 15.4468C16.1747 15.7036 16.0506 15.8955 15.8516 16.093C15.6527 16.292 15.4622 16.4161 15.2054 16.5191C14.4633 16.814 12.701 16.7477 11.8785 16.7477C11.0559 16.7477 9.29224 16.814 8.5501 16.5206C8.29331 16.4176 8.10142 16.2934 7.90389 16.0945C7.70495 15.8955 7.58079 15.705 7.47779 15.4483C7.18432 14.7047 7.25063 12.9424 7.25063 12.1199C7.25063 11.2973 7.18432 9.53365 7.47779 8.7915C7.58079 8.53471 7.70495 8.34282 7.90389 8.14529C8.10283 7.94776 8.29331 7.82219 8.5501 7.71919C9.29224 7.42572 11.0559 7.49203 11.8785 7.49203C12.701 7.49203 14.4647 7.42572 15.2069 7.71919C15.4636 7.82219 15.6555 7.94635 15.8531 8.14529C16.052 8.34423 16.1762 8.53471 16.2792 8.7915C16.5726 9.53365 16.5063 11.2973 16.5063 12.1199C16.5063 12.9424 16.5726 14.7047 16.2777 15.4468Z" fill="white"/>
</svg>
