<svg width="24" height="24" viewBox="0 0 24 24" fill="none" xmlns="http://www.w3.org/2000/svg">
<circle cx="12" cy="12" r="12" fill="#590209"/>
<path d="M18.9135 7.57905C18.3941 7.80882 17.8433 7.95976 17.2793 8.02689C17.8735 7.67102 18.3181 7.11129 18.5303 6.45197C17.9722 6.7841 17.3603 7.01687 16.7233 7.14278C16.2949 6.68445 15.7271 6.38048 15.1082 6.27813C14.4892 6.17578 13.8538 6.28079 13.3007 6.57682C12.7476 6.87286 12.3078 7.34334 12.0496 7.91513C11.7915 8.48691 11.7295 9.12796 11.8733 9.73861C10.7414 9.68198 9.63405 9.38792 8.62319 8.87551C7.61234 8.36311 6.72056 7.64382 6.00576 6.76436C5.75277 7.1989 5.61982 7.69286 5.62054 8.19568C5.62054 9.18256 6.1235 10.0544 6.88646 10.5649C6.43455 10.5506 5.99259 10.4286 5.59739 10.2089V10.2436C5.59737 10.901 5.82474 11.5382 6.24093 12.047C6.65712 12.5559 7.23651 12.9051 7.88083 13.0355C7.46133 13.1493 7.02142 13.166 6.59448 13.0845C6.77615 13.6503 7.13027 14.1452 7.60722 14.4997C8.08418 14.8543 8.66009 15.0507 9.25429 15.0616C8.66377 15.5254 7.98761 15.8683 7.26448 16.0705C6.54135 16.2728 5.78544 16.3306 5.03998 16.2404C6.34111 17.0772 7.85572 17.5214 9.40267 17.52C14.6393 17.52 17.5019 13.1825 17.5019 9.42077C17.5019 9.29826 17.4992 9.17439 17.4937 9.05256C18.0507 8.64989 18.5315 8.15046 18.9135 7.57905Z" fill="white"/>
</svg>
